<svg fill="grey"  class="svg-icon" style="width: 1em;height: 1em;vertical-align: middle;overflow: hidden;
" viewBox="0 0 1024 1024" version="1.1" xmlns="http://www.w3.org/2000/svg">
<path d="M572.8 534.4c-13.664 0-26.624 2.976-38.304 8.288L438.4 476.8l57.472 98.496A92.352 92.352 0 0 0 480 627.2c0 51.264 41.536 
92.8 92.8 92.8s92.8-41.536 92.8-92.8-41.536-92.8-92.8-92.8zM289.824 325.024l-22.016-192.256-61.376 61.344-72.288-72.256-47.488 
47.488 72.256 72.288-61.344 61.376z" />
<path d="M953.6 620.8c0-118.816-54.688-225.056-140.224-294.944l-0.608-0.608-0.064 0.064c-60.896-49.536-137.28-80.672-220.704-84.832V240h-38.4v0.48c-83.712 
4.192-160.384 35.52-221.376 85.376l-0.608-0.608-6.912 6.912C243.488 402.048 192 505.536 192 620.8c0 87.168 29.44 170.464 83.392 237.824l-0.032 0.032 0.448 
0.512c6.496 8.064 13.28 15.904 20.48 23.488l0.416-0.416 4.416 4.896 111.488-100.96-25.792-28.448-73.44 66.496C267.936 766.336 243.2 695.2 243.2 620.8c0-7.52 
0.288-15.008 0.768-22.4H348.8v-38.4H248.832c12.448-66.56 44.96-126.144 91.04-172.192l70.944 70.944 27.168-27.168-69.344-69.344c51.488-40.736 115.392-66.464 
184.992-70.496V390.4h38.4V291.776c69.312 4 132.96 29.504 184.32 69.92l-69.888 69.888 27.136 27.168 71.52-71.52c46.368 46.144 79.136 105.92 91.648 
172.768h-101.184v38.4h106.048c0.512 7.392 0.768 14.88 0.768 22.4 0 75.296-25.408 147.36-72 205.6l-73.888-64.832-25.312 28.864 
113.056 99.2 25.312-28.864-0.64-0.544C923.712 792.576 953.6 708.608 953.6 620.8z" />
</svg>