<?xml version="1.0" standalone="no"?>
<!DOCTYPE svg PUBLIC "-//W3C//DTD SVG 20010904//EN"
 "http://www.w3.org/TR/2001/REC-SVG-20010904/DTD/svg10.dtd">
<svg version="1.0" xmlns="http://www.w3.org/2000/svg"
 width="512.000000pt" height="512.000000pt" viewBox="0 0 512.000000 512.000000"
 preserveAspectRatio="xMidYMid meet">

<g transform="translate(0.000000,512.000000) scale(0.100000,-0.100000)"
fill="#000000" stroke="none">
<path d="M4117 4443 c-380 -366 -974 -954 -1240 -1228 -430 -442 -513 -534
-996 -1109 l-243 -288 88 -89 89 -89 415 351 c525 444 677 579 1002 893 336
323 1284 1292 1325 1354 9 12 15 42 15 67 -3 124 -147 265 -272 265 l-51 0
-132 -127z"/>
<path d="M1328 1463 c-102 -115 -227 -252 -278 -306 l-93 -98 51 -51 50 -51
144 134 c79 74 207 190 283 258 77 68 151 135 165 148 l25 23 -75 75 c-41 41
-77 75 -81 75 -3 0 -89 -93 -191 -207z"/>
<path d="M666 991 l-47 -48 163 -161 163 -161 48 47 c26 25 46 49 45 52 -2 3
-75 76 -164 162 l-160 158 -48 -49z"/>
</g>
</svg>
